unsigned char MidiFile2[215] = {
        0x4D, 0x54, 0x68, 0x64, 0x00, 0x00, 0x00, 0x06, 0x00, 0x00, 0x00, 0x01, 0x00, 0x60, 0x4D, 0x54,
        0x72, 0x6B, 0x00, 0x00, 0x00, 0xC1, 0x00, 0xFF, 0x03, 0x08, 0x4D, 0x49, 0x44, 0x49, 0x20, 0x6F,
        0x75, 0x74, 0x00, 0xFF, 0x01, 0x0E, 0x50, 0x73, 0x6D, 0x50, 0x6C, 0x61, 0x79, 0x65, 0x72, 0x20,
        0x56, 0x35, 0x2E, 0x30, 0x00, 0xF0, 0x05, 0x7E, 0x7F, 0x09, 0x01, 0xF7, 0x00, 0xFF, 0x51, 0x03,
        0x06, 0x8A, 0x1B, 0x00, 0xC0, 0x00, 0x00, 0xB0, 0x07, 0x64, 0x00, 0x65, 0x00, 0x00, 0x64, 0x00,
        0x00, 0x06, 0x0C, 0x00, 0x65, 0x00, 0x00, 0x64, 0x00, 0x00, 0x90, 0x47, 0x63, 0x2E, 0x80, 0x47,
        0x00, 0x01, 0x90, 0x46, 0x63, 0x2F, 0x80, 0x46, 0x00, 0x01, 0x90, 0x45, 0x63, 0x2F, 0x80, 0x45,
        0x00, 0x01, 0x90, 0x44, 0x63, 0x2F, 0x80, 0x44, 0x00, 0x01, 0x90, 0x43, 0x63, 0x2F, 0x80, 0x43,
        0x00, 0x01, 0x90, 0x42, 0x63, 0x2F, 0x80, 0x42, 0x00, 0x01, 0x90, 0x41, 0x63, 0x2F, 0x80, 0x41,
        0x00, 0x01, 0x90, 0x40, 0x63, 0x2F, 0x80, 0x40, 0x00, 0x01, 0x90, 0x41, 0x63, 0x2F, 0x80, 0x41,
        0x00, 0x01, 0x90, 0x42, 0x63, 0x2F, 0x80, 0x42, 0x00, 0x01, 0x90, 0x43, 0x63, 0x2F, 0x80, 0x43,
        0x00, 0x01, 0x90, 0x44, 0x63, 0x2F, 0x80, 0x44, 0x00, 0x01, 0x90, 0x45, 0x63, 0x2F, 0x80, 0x45,
        0x00, 0x01, 0x90, 0x46, 0x63, 0x2F, 0x80, 0x46, 0x00, 0x61, 0xB0, 0x79, 0x00, 0x01, 0x65, 0x00,
        0x00, 0x64, 0x00, 0x00, 0xFF, 0x2F, 0x00
};


